{
  "accessors": [
    {
      "bufferView": 2,
      "componentType": 5126,
      "count": 104,
      "max": [
        30.587818145751953,
        0,
        18.797916412353516
      ],
      "min": [
        25.187824249267578,
        -0.076000213623046875,
        10.19791316986084
      ],
      "type": "VEC3"
    },
    {
      "bufferView": 2,
      "byteOffset": 1248,
      "componentType": 5126,
      "count": 104,
      "max": [
        0.99999696016311646,
        1,
        0.99999123811721802
      ],
      "min": [
        -0.99999696016311646,
        -1,
        -0.99999123811721802
      ],
      "type": "VEC3"
    },
    {
      "bufferView": 3,
      "componentType": 5126,
      "count": 104,
      "max": [
        0.80902314186096191,
        2.7924036203330616e-06,
        1,
        1
      ],
      "min": [
        -0.99999123811721802,
        -1.9196565972379176e-06,
        -1,
        1
      ],
      "type": "VEC4"
    },
    {
      "bufferView": 1,
      "componentType": 5126,
      "count": 104,
      "max": [
        0.85367846488952637,
        0.42565947771072388
      ],
      "min": [
        0.3856823742389679,
        0.00019531254656612873
      ],
      "type": "VEC2"
    },
    {
      "bufferView": 0,
      "componentType": 5125,
      "count": 276,
      "max": [
        103
      ],
      "min": [
        0
      ],
      "type": "SCALAR"
    },
    {
      "bufferView": 2,
      "byteOffset": 2496,
      "componentType": 5126,
      "count": 104,
      "max": [
        46.890983581542969,
        0,
        18.797916412353516
      ],
      "min": [
        41.490989685058594,
        -0.076000452041625977,
        10.19791316986084
      ],
      "type": "VEC3"
    },
    {
      "bufferView": 2,
      "byteOffset": 3744,
      "componentType": 5126,
      "count": 104,
      "max": [
        0.99999696016311646,
        1,
        0.99999123811721802
      ],
      "min": [
        -0.99999696016311646,
        -1,
        -0.99999123811721802
      ],
      "type": "VEC3"
    },
    {
      "bufferView": 3,
      "byteOffset": 1664,
      "componentType": 5126,
      "count": 104,
      "max": [
        0.80902135372161865,
        5.4728334362152964e-06,
        1,
        1
      ],
      "min": [
        -0.99999123811721802,
        -1.6101679420899018e-06,
        -1,
        1
      ],
      "type": "VEC4"
    },
    {
      "bufferView": 1,
      "byteOffset": 832,
      "componentType": 5126,
      "count": 104,
      "max": [
        0.28892424702644348,
        0.87677383422851562
      ],
      "min": [
        0.12150669097900391,
        0.63934636116027832
      ],
      "type": "VEC2"
    },
    {
      "bufferView": 0,
      "byteOffset": 1104,
      "componentType": 5125,
      "count": 276,
      "max": [
        103
      ],
      "min": [
        0
      ],
      "type": "SCALAR"
    },
    {
      "bufferView": 2,
      "byteOffset": 4992,
      "componentType": 5126,
      "count": 7353,
      "max": [
        17.684541702270508,
        0,
        24.124973297119141
      ],
      "min": [
        -17.684541702270508,
        -2.8205413818359375,
        0
      ],
      "type": "VEC3"
    },
    {
      "bufferView": 2,
      "byteOffset": 93228,
      "componentType": 5126,
      "count": 7353,
      "max": [
        0.99992191791534424,
        1,
        1
      ],
      "min": [
        -0.99991500377655029,
        -1,
        -1
      ],
      "type": "VEC3"
    },
    {
      "bufferView": 3,
      "byteOffset": 3328,
      "componentType": 5126,
      "count": 7353,
      "max": [
        1,
        1,
        0.99998414516448975,
        1
      ],
      "min": [
        -1,
        -1,
        -0.9999995231628418,
        1
      ],
      "type": "VEC4"
    },
    {
      "bufferView": 1,
      "byteOffset": 1664,
      "componentType": 5126,
      "count": 7353,
      "max": [
        0.99980467557907104,
        0.99231356382369995
      ],
      "min": [
        0.00019530951976776123,
        0.00019531231373548508
      ],
      "type": "VEC2"
    },
    {
      "bufferView": 0,
      "byteOffset": 2208,
      "componentType": 5125,
      "count": 32004,
      "max": [
        7352
      ],
      "min": [
        0
      ],
      "type": "SCALAR"
    }
  ],
  "asset": {
    "extras": {
      "author": "Anna_Zhdanova (https://sketchfab.com/Anna_Zhdanova)",
      "license": "SKETCHFAB Standard (https://sketchfab.com/licenses)",
      "source": "https://sketchfab.com/3d-models/door-electric-lock-keypad-card-reader-low-poly-11f295ebeeb2449582f80c4615aea8c2",
      "title": "Door electric lock keypad /Card reader Low-poly"
    },
    "generator": "Sketchfab-9.47.0",
    "version": "2.0"
  },
  "bufferViews": [
    {
      "buffer": 0,
      "byteLength": 130224,
      "byteOffset": 0,
      "name": "floatBufferViews",
      "target": 34963
    },
    {
      "buffer": 0,
      "byteLength": 60488,
      "byteOffset": 130224,
      "byteStride": 8,
      "name": "floatBufferViews",
      "target": 34962
    },
    {
      "buffer": 0,
      "byteLength": 181464,
      "byteOffset": 190712,
      "byteStride": 12,
      "name": "floatBufferViews",
      "target": 34962
    },
    {
      "buffer": 0,
      "byteLength": 120976,
      "byteOffset": 372176,
      "byteStride": 16,
      "name": "floatBufferViews",
      "target": 34962
    }
  ],
  "buffers": [
    {
      "byteLength": 493152,
      "uri": "scene.bin"
    }
  ],
  "images": [
    {
      "uri": "textures/M_KeypadLock_baseColor.png"
    },
    {
      "uri": "textures/M_KeypadLock_metallicRoughness.png"
    },
    {
      "uri": "textures/M_KeypadLock_emissive.png"
    },
    {
      "uri": "textures/M_KeypadLock_normal.png"
    }
  ],
  "materials": [
    {
      "doubleSided": true,
      "emissiveFactor": [
        1,
        1,
        1
      ],
      "emissiveTexture": {
        "index": 2,
        "texCoord": 0
      },
      "name": "M_KeypadLock",
      "normalTexture": {
        "index": 3,
        "scale": 1,
        "texCoord": 0
      },
      "occlusionTexture": {
        "index": 1,
        "strength": 1,
        "texCoord": 0
      },
      "pbrMetallicRoughness": {
        "baseColorFactor": [
          1,
          1,
          1,
          1
        ],
        "baseColorTexture": {
          "index": 0,
          "texCoord": 0
        },
        "metallicFactor": 1,
        "metallicRoughnessTexture": {
          "index": 1,
          "texCoord": 0
        },
        "roughnessFactor": 1
      }
    }
  ],
  "meshes": [
    {
      "name": "SM_IDCard_01_M_KeypadLock_0",
      "primitives": [
        {
          "attributes": {
            "NORMAL": 1,
            "POSITION": 0,
            "TANGENT": 2,
            "TEXCOORD_0": 3
          },
          "indices": 4,
          "material": 0,
          "mode": 4
        }
      ]
    },
    {
      "name": "SM_IDCard_02_M_KeypadLock_0",
      "primitives": [
        {
          "attributes": {
            "NORMAL": 6,
            "POSITION": 5,
            "TANGENT": 7,
            "TEXCOORD_0": 8
          },
          "indices": 9,
          "material": 0,
          "mode": 4
        }
      ]
    },
    {
      "name": "polySurface208_M_KeypadLock_0",
      "primitives": [
        {
          "attributes": {
            "NORMAL": 11,
            "POSITION": 10,
            "TANGENT": 12,
            "TEXCOORD_0": 13
          },
          "indices": 14,
          "material": 0,
          "mode": 4
        }
      ]
    }
  ],
  "nodes": [
    {
      "children": [
        1
      ],
      "name": "RootNode (gltf orientation matrix)",
      "rotation": [
        -0.70710678118654746,
        -0,
        -0,
        0.70710678118654757
      ]
    },
    {
      "children": [
        2
      ],
      "matrix": [
        1,
        0,
        0,
        0,
        0,
        -1,
        0,
        0,
        0,
        0,
        -1,
        0,
        0,
        2.7280592918395996,
        -56.061164855957031,
        1
      ],
      "name": "RootNode (model correction matrix)"
    },
    {
      "children": [
        3
      ],
      "matrix": [
        1,
        0,
        0,
        0,
        0,
        -1,
        0,
        0,
        0,
        0,
        -1,
        0,
        0,
        0,
        0,
        1
      ],
      "name": "7254217e710b462e96697587c805ac18.fbx"
    },
    {
      "children": [
        4,
        6,
        8
      ],
      "name": "RootNode"
    },
    {
      "children": [
        5
      ],
      "name": "SM_IDCard_01"
    },
    {
      "mesh": 0,
      "name": "SM_IDCard_01_M_KeypadLock_0"
    },
    {
      "children": [
        7
      ],
      "name": "SM_IDCard_02"
    },
    {
      "mesh": 1,
      "name": "SM_IDCard_02_M_KeypadLock_0"
    },
    {
      "children": [
        9
      ],
      "name": "polySurface208"
    },
    {
      "mesh": 2,
      "name": "polySurface208_M_KeypadLock_0"
    }
  ],
  "samplers": [
    {
      "magFilter": 9729,
      "minFilter": 9987,
      "wrapS": 10497,
      "wrapT": 10497
    }
  ],
  "scene": 0,
  "scenes": [
    {
      "name": "OSG_Scene",
      "nodes": [
        0
      ]
    }
  ],
  "textures": [
    {
      "sampler": 0,
      "source": 0
    },
    {
      "sampler": 0,
      "source": 1
    },
    {
      "sampler": 0,
      "source": 2
    },
    {
      "sampler": 0,
      "source": 3
    }
  ]
}

